<svg width="24" height="24" viewBox="0 0 24 24" fill="none" xmlns="http://www.w3.org/2000/svg">
<path fill-rule="evenodd" clip-rule="evenodd" d="M18.2511 2.47775C20.3117 1.61917 22.3789 3.68639 21.5203 5.74698L15.5968 19.9634C14.4384 22.7437 10.3636 22.2738 9.86839 19.3028L9.12938 14.8687L4.6953 14.1297C1.72431 13.6345 1.25437 9.55972 4.03465 8.40127L18.2511 2.47775ZM19.6742 4.97775C19.8459 4.56563 19.4324 4.15219 19.0203 4.3239L4.80388 10.2474C3.87712 10.6336 4.03377 11.9918 5.02409 12.1569L9.45818 12.8959C10.3011 13.0364 10.9617 13.697 11.1022 14.5399L11.8412 18.974C12.0062 19.9643 13.3645 20.121 13.7506 19.1942L19.6742 4.97775Z" fill="#B1B5C4"/>
</svg>
